<mxfile host="Electron" agent="Mozilla/5.0 (X11; Linux x86_64) AppleWebKit/537.36 (KHTML, like Gecko) draw.io/25.0.1 Chrome/128.0.6613.186 Electron/32.2.6 Safari/537.36" version="25.0.1">
  <diagram name="Page-1" id="VwlpSBU5lFGN4q1Aujl8">
    <mxGraphModel dx="1195" dy="734" grid="1" gridSize="10" guides="1" tooltips="1" connect="1" arrows="1" fold="1" page="1" pageScale="1" pageWidth="850" pageHeight="1100" math="0" shadow="0">
      <root>
        <mxCell id="0" />
        <mxCell id="1" parent="0" />
        <mxCell id="6bQlUEMZ5JdSxxlc4bhK-11" style="edgeStyle=orthogonalEdgeStyle;rounded=0;orthogonalLoop=1;jettySize=auto;html=1;entryX=0.5;entryY=0;entryDx=0;entryDy=0;" edge="1" parent="1" source="6bQlUEMZ5JdSxxlc4bhK-3" target="6bQlUEMZ5JdSxxlc4bhK-10">
          <mxGeometry relative="1" as="geometry" />
        </mxCell>
        <mxCell id="6bQlUEMZ5JdSxxlc4bhK-3" value="&lt;font style=&quot;font-size: 17px;&quot;&gt;cdc&lt;/font&gt;" style="html=1;dashed=0;whiteSpace=wrap;shape=mxgraph.dfd.start" vertex="1" parent="1">
          <mxGeometry x="300" width="80" height="30" as="geometry" />
        </mxCell>
        <mxCell id="6bQlUEMZ5JdSxxlc4bhK-8" value="" style="edgeStyle=orthogonalEdgeStyle;rounded=0;orthogonalLoop=1;jettySize=auto;html=1;" edge="1" parent="1" source="6bQlUEMZ5JdSxxlc4bhK-4" target="6bQlUEMZ5JdSxxlc4bhK-7">
          <mxGeometry relative="1" as="geometry" />
        </mxCell>
        <mxCell id="6bQlUEMZ5JdSxxlc4bhK-4" value="&lt;font style=&quot;font-size: 14px;&quot;&gt;acquire lock to the file&lt;/font&gt;" style="rounded=1;whiteSpace=wrap;html=1;absoluteArcSize=1;arcSize=14;strokeWidth=2;" vertex="1" parent="1">
          <mxGeometry x="275" y="190" width="130" height="70" as="geometry" />
        </mxCell>
        <mxCell id="6bQlUEMZ5JdSxxlc4bhK-7" value="&lt;font&gt;error occured ?&lt;/font&gt;" style="rhombus;whiteSpace=wrap;html=1;rounded=1;arcSize=14;strokeWidth=2;" vertex="1" parent="1">
          <mxGeometry x="300" y="310" width="80" height="80" as="geometry" />
        </mxCell>
        <mxCell id="6bQlUEMZ5JdSxxlc4bhK-13" style="edgeStyle=orthogonalEdgeStyle;rounded=0;orthogonalLoop=1;jettySize=auto;html=1;entryX=1;entryY=0.5;entryDx=0;entryDy=0;exitX=0.466;exitY=-0.001;exitDx=0;exitDy=0;exitPerimeter=0;curved=1;" edge="1" parent="1" source="6bQlUEMZ5JdSxxlc4bhK-20" target="6bQlUEMZ5JdSxxlc4bhK-10">
          <mxGeometry relative="1" as="geometry">
            <mxPoint x="500" y="310" as="sourcePoint" />
          </mxGeometry>
        </mxCell>
        <mxCell id="6bQlUEMZ5JdSxxlc4bhK-12" style="edgeStyle=orthogonalEdgeStyle;rounded=0;orthogonalLoop=1;jettySize=auto;html=1;entryX=0.5;entryY=0;entryDx=0;entryDy=0;" edge="1" parent="1" source="6bQlUEMZ5JdSxxlc4bhK-10" target="6bQlUEMZ5JdSxxlc4bhK-4">
          <mxGeometry relative="1" as="geometry" />
        </mxCell>
        <mxCell id="6bQlUEMZ5JdSxxlc4bhK-10" value="&lt;font&gt;indefinite loop&lt;/font&gt;" style="rhombus;whiteSpace=wrap;html=1;rounded=1;arcSize=14;strokeWidth=2;" vertex="1" parent="1">
          <mxGeometry x="300" y="80" width="80" height="80" as="geometry" />
        </mxCell>
        <mxCell id="6bQlUEMZ5JdSxxlc4bhK-14" style="edgeStyle=orthogonalEdgeStyle;rounded=0;orthogonalLoop=1;jettySize=auto;html=1;entryX=0;entryY=0.5;entryDx=0;entryDy=0;" edge="1" parent="1" source="6bQlUEMZ5JdSxxlc4bhK-7" target="6bQlUEMZ5JdSxxlc4bhK-20">
          <mxGeometry relative="1" as="geometry">
            <mxPoint x="459.9999999999998" y="350" as="targetPoint" />
          </mxGeometry>
        </mxCell>
        <mxCell id="6bQlUEMZ5JdSxxlc4bhK-15" value="Yes" style="text;html=1;align=center;verticalAlign=middle;whiteSpace=wrap;rounded=0;" vertex="1" parent="1">
          <mxGeometry x="360" y="320" width="60" height="30" as="geometry" />
        </mxCell>
        <mxCell id="6bQlUEMZ5JdSxxlc4bhK-19" style="edgeStyle=orthogonalEdgeStyle;rounded=0;orthogonalLoop=1;jettySize=auto;html=1;entryX=1.004;entryY=0.566;entryDx=0;entryDy=0;entryPerimeter=0;" edge="1" parent="1" source="6bQlUEMZ5JdSxxlc4bhK-16" target="6bQlUEMZ5JdSxxlc4bhK-23">
          <mxGeometry relative="1" as="geometry">
            <mxPoint x="220" y="480" as="targetPoint" />
          </mxGeometry>
        </mxCell>
        <mxCell id="6bQlUEMZ5JdSxxlc4bhK-26" style="edgeStyle=orthogonalEdgeStyle;rounded=0;orthogonalLoop=1;jettySize=auto;html=1;entryX=0.5;entryY=0;entryDx=0;entryDy=0;" edge="1" parent="1" source="6bQlUEMZ5JdSxxlc4bhK-16" target="6bQlUEMZ5JdSxxlc4bhK-27">
          <mxGeometry relative="1" as="geometry">
            <mxPoint x="340" y="590" as="targetPoint" />
          </mxGeometry>
        </mxCell>
        <mxCell id="6bQlUEMZ5JdSxxlc4bhK-16" value="&lt;font&gt;lock aquired ?&lt;/font&gt;" style="rhombus;whiteSpace=wrap;html=1;rounded=1;arcSize=14;strokeWidth=2;" vertex="1" parent="1">
          <mxGeometry x="300" y="440" width="80" height="80" as="geometry" />
        </mxCell>
        <mxCell id="6bQlUEMZ5JdSxxlc4bhK-17" style="edgeStyle=orthogonalEdgeStyle;rounded=0;orthogonalLoop=1;jettySize=auto;html=1;entryX=0.503;entryY=0.081;entryDx=0;entryDy=0;entryPerimeter=0;" edge="1" parent="1" source="6bQlUEMZ5JdSxxlc4bhK-7" target="6bQlUEMZ5JdSxxlc4bhK-16">
          <mxGeometry relative="1" as="geometry" />
        </mxCell>
        <mxCell id="6bQlUEMZ5JdSxxlc4bhK-18" value="No" style="text;html=1;align=center;verticalAlign=middle;whiteSpace=wrap;rounded=0;" vertex="1" parent="1">
          <mxGeometry x="320" y="380" width="60" height="30" as="geometry" />
        </mxCell>
        <mxCell id="6bQlUEMZ5JdSxxlc4bhK-20" value="&lt;font style=&quot;font-size: 14px;&quot;&gt;log the issue&lt;/font&gt;" style="rounded=1;whiteSpace=wrap;html=1;absoluteArcSize=1;arcSize=14;strokeWidth=2;" vertex="1" parent="1">
          <mxGeometry x="450" y="315" width="130" height="70" as="geometry" />
        </mxCell>
        <mxCell id="6bQlUEMZ5JdSxxlc4bhK-25" style="edgeStyle=orthogonalEdgeStyle;rounded=0;orthogonalLoop=1;jettySize=auto;html=1;entryX=0;entryY=0.5;entryDx=0;entryDy=0;curved=1;exitX=0.5;exitY=0;exitDx=0;exitDy=0;" edge="1" parent="1" source="6bQlUEMZ5JdSxxlc4bhK-23" target="6bQlUEMZ5JdSxxlc4bhK-10">
          <mxGeometry relative="1" as="geometry" />
        </mxCell>
        <mxCell id="6bQlUEMZ5JdSxxlc4bhK-23" value="&lt;font style=&quot;font-size: 14px;&quot;&gt;sleep for n time&lt;/font&gt;" style="rounded=1;whiteSpace=wrap;html=1;absoluteArcSize=1;arcSize=14;strokeWidth=2;" vertex="1" parent="1">
          <mxGeometry x="100" y="440" width="130" height="70" as="geometry" />
        </mxCell>
        <mxCell id="6bQlUEMZ5JdSxxlc4bhK-24" value="No" style="text;html=1;align=center;verticalAlign=middle;whiteSpace=wrap;rounded=0;" vertex="1" parent="1">
          <mxGeometry x="260" y="450" width="60" height="30" as="geometry" />
        </mxCell>
        <mxCell id="6bQlUEMZ5JdSxxlc4bhK-29" style="edgeStyle=orthogonalEdgeStyle;rounded=0;orthogonalLoop=1;jettySize=auto;html=1;entryX=0.501;entryY=0.029;entryDx=0;entryDy=0;entryPerimeter=0;" edge="1" parent="1" source="6bQlUEMZ5JdSxxlc4bhK-27" target="6bQlUEMZ5JdSxxlc4bhK-28">
          <mxGeometry relative="1" as="geometry" />
        </mxCell>
        <mxCell id="6bQlUEMZ5JdSxxlc4bhK-27" value="&lt;font style=&quot;font-size: 14px;&quot;&gt;compare hashes of the current file and the previous hash&lt;/font&gt;" style="rounded=1;whiteSpace=wrap;html=1;absoluteArcSize=1;arcSize=14;strokeWidth=2;" vertex="1" parent="1">
          <mxGeometry x="275" y="580" width="130" height="70" as="geometry" />
        </mxCell>
        <mxCell id="6bQlUEMZ5JdSxxlc4bhK-30" style="edgeStyle=orthogonalEdgeStyle;rounded=0;orthogonalLoop=1;jettySize=auto;html=1;exitX=0.968;exitY=0.498;exitDx=0;exitDy=0;exitPerimeter=0;entryX=1;entryY=0.5;entryDx=0;entryDy=0;" edge="1" parent="1" source="6bQlUEMZ5JdSxxlc4bhK-28" target="6bQlUEMZ5JdSxxlc4bhK-10">
          <mxGeometry relative="1" as="geometry">
            <mxPoint x="380" y="740" as="sourcePoint" />
            <mxPoint x="450" y="120" as="targetPoint" />
            <Array as="points">
              <mxPoint x="630" y="740" />
              <mxPoint x="630" y="120" />
            </Array>
          </mxGeometry>
        </mxCell>
        <mxCell id="6bQlUEMZ5JdSxxlc4bhK-36" style="edgeStyle=orthogonalEdgeStyle;rounded=0;orthogonalLoop=1;jettySize=auto;html=1;entryX=0.5;entryY=0;entryDx=0;entryDy=0;" edge="1" parent="1" source="6bQlUEMZ5JdSxxlc4bhK-28" target="6bQlUEMZ5JdSxxlc4bhK-35">
          <mxGeometry relative="1" as="geometry" />
        </mxCell>
        <mxCell id="6bQlUEMZ5JdSxxlc4bhK-28" value="&lt;font&gt;Not matched ?&lt;/font&gt;" style="rhombus;whiteSpace=wrap;html=1;rounded=1;arcSize=14;strokeWidth=2;" vertex="1" parent="1">
          <mxGeometry x="300" y="700" width="80" height="80" as="geometry" />
        </mxCell>
        <mxCell id="6bQlUEMZ5JdSxxlc4bhK-31" value="Yes" style="text;html=1;align=center;verticalAlign=middle;whiteSpace=wrap;rounded=0;" vertex="1" parent="1">
          <mxGeometry x="330" y="510" width="60" height="30" as="geometry" />
        </mxCell>
        <mxCell id="6bQlUEMZ5JdSxxlc4bhK-32" value="No" style="text;html=1;align=center;verticalAlign=middle;whiteSpace=wrap;rounded=0;" vertex="1" parent="1">
          <mxGeometry x="360" y="700" width="60" height="30" as="geometry" />
        </mxCell>
        <mxCell id="6bQlUEMZ5JdSxxlc4bhK-39" value="" style="edgeStyle=orthogonalEdgeStyle;rounded=0;orthogonalLoop=1;jettySize=auto;html=1;" edge="1" parent="1" source="6bQlUEMZ5JdSxxlc4bhK-35" target="6bQlUEMZ5JdSxxlc4bhK-38">
          <mxGeometry relative="1" as="geometry" />
        </mxCell>
        <mxCell id="6bQlUEMZ5JdSxxlc4bhK-35" value="get the changed lines" style="shape=process;whiteSpace=wrap;html=1;backgroundOutline=1;" vertex="1" parent="1">
          <mxGeometry x="280" y="840" width="120" height="60" as="geometry" />
        </mxCell>
        <mxCell id="6bQlUEMZ5JdSxxlc4bhK-41" value="" style="edgeStyle=orthogonalEdgeStyle;rounded=0;orthogonalLoop=1;jettySize=auto;html=1;" edge="1" parent="1" source="6bQlUEMZ5JdSxxlc4bhK-38" target="6bQlUEMZ5JdSxxlc4bhK-40">
          <mxGeometry relative="1" as="geometry" />
        </mxCell>
        <mxCell id="6bQlUEMZ5JdSxxlc4bhK-38" value="log the changed lines" style="rounded=1;whiteSpace=wrap;html=1;" vertex="1" parent="1">
          <mxGeometry x="280" y="970" width="120" height="60" as="geometry" />
        </mxCell>
        <mxCell id="6bQlUEMZ5JdSxxlc4bhK-42" style="edgeStyle=orthogonalEdgeStyle;rounded=0;orthogonalLoop=1;jettySize=auto;html=1;entryX=0;entryY=0.5;entryDx=0;entryDy=0;exitX=0;exitY=0.5;exitDx=0;exitDy=0;" edge="1" parent="1" source="6bQlUEMZ5JdSxxlc4bhK-40" target="6bQlUEMZ5JdSxxlc4bhK-10">
          <mxGeometry relative="1" as="geometry">
            <mxPoint x="220.0044827586207" y="1100" as="sourcePoint" />
            <mxPoint x="179.97" y="110" as="targetPoint" />
            <Array as="points">
              <mxPoint x="30" y="1140" />
              <mxPoint x="30" y="120" />
            </Array>
          </mxGeometry>
        </mxCell>
        <mxCell id="6bQlUEMZ5JdSxxlc4bhK-40" value="push data to destination (queue)" style="shape=process;whiteSpace=wrap;html=1;backgroundOutline=1;rounded=1;" vertex="1" parent="1">
          <mxGeometry x="280" y="1110" width="120" height="60" as="geometry" />
        </mxCell>
        <mxCell id="6bQlUEMZ5JdSxxlc4bhK-43" value="&lt;font style=&quot;font-size: 14px;&quot;&gt;push data to dest&lt;/font&gt;" style="html=1;dashed=0;whiteSpace=wrap;shape=mxgraph.dfd.start" vertex="1" parent="1">
          <mxGeometry x="1030" y="20" width="80" height="30" as="geometry" />
        </mxCell>
      </root>
    </mxGraphModel>
  </diagram>
</mxfile>
